<svg width="256" height="256" viewBox="0 0 256 256" fill="none" xmlns="http://www.w3.org/2000/svg" role="img" aria-label="Flutterwind logo dark">
  <defs>
    <linearGradient id="bgDark" x1="24" y1="24" x2="232" y2="232" gradientUnits="userSpaceOnUse">
      <stop stop-color="#0A2236"/>
      <stop offset="1" stop-color="#0E2E46"/>
    </linearGradient>
    <linearGradient id="wingADark" x1="68" y1="72" x2="182" y2="186" gradientUnits="userSpaceOnUse">
      <stop stop-color="#54D3FF"/>
      <stop offset="1" stop-color="#1F91DF"/>
    </linearGradient>
    <linearGradient id="wingBDark" x1="95" y1="88" x2="214" y2="150" gradientUnits="userSpaceOnUse">
      <stop stop-color="#3FC2FF"/>
      <stop offset="1" stop-color="#1B77C2"/>
    </linearGradient>
  </defs>
  <rect x="20" y="20" width="216" height="216" rx="56" fill="url(#bgDark)"/>
  <path d="M66 170L120 116H176L122 170H66Z" fill="url(#wingADark)"/>
  <path d="M120 116L154 82H210L176 116H120Z" fill="url(#wingBDark)"/>
  <path d="M122 170L154 202H210L178 170H122Z" fill="#1369AA"/>
  <path d="M98 136L120 116L178 170L156 192L98 136Z" fill="#1F8EDB"/>
  <path d="M44 134C60 126 76 126 90 132" stroke="#56CBFF" stroke-width="10" stroke-linecap="round"/>
  <path d="M38 156C58 146 82 146 100 154" stroke="#3FB7F4" stroke-width="8" stroke-linecap="round"/>
  <path d="M42 176C60 168 78 168 94 174" stroke="#7ED9FF" stroke-width="7" stroke-linecap="round"/>
</svg>
