<svg width="256" height="256" viewBox="0 0 256 256" fill="none" xmlns="http://www.w3.org/2000/svg" role="img" aria-label="Flutterwind logo">
  <defs>
    <linearGradient id="bgLight" x1="24" y1="24" x2="232" y2="232" gradientUnits="userSpaceOnUse">
      <stop stop-color="#E6F7FF"/>
      <stop offset="1" stop-color="#CDEBFF"/>
    </linearGradient>
    <linearGradient id="wingA" x1="68" y1="72" x2="182" y2="186" gradientUnits="userSpaceOnUse">
      <stop stop-color="#3FC2FF"/>
      <stop offset="1" stop-color="#0C7CC9"/>
    </linearGradient>
    <linearGradient id="wingB" x1="95" y1="88" x2="214" y2="150" gradientUnits="userSpaceOnUse">
      <stop stop-color="#22AEEF"/>
      <stop offset="1" stop-color="#1369AA"/>
    </linearGradient>
  </defs>
  <rect x="20" y="20" width="216" height="216" rx="56" fill="url(#bgLight)"/>
  <path d="M66 170L120 116H176L122 170H66Z" fill="url(#wingA)"/>
  <path d="M120 116L154 82H210L176 116H120Z" fill="url(#wingB)"/>
  <path d="M122 170L154 202H210L178 170H122Z" fill="#0E5D9A"/>
  <path d="M98 136L120 116L178 170L156 192L98 136Z" fill="#157ABF"/>
  <path d="M44 134C60 126 76 126 90 132" stroke="#157ABF" stroke-width="10" stroke-linecap="round"/>
  <path d="M38 156C58 146 82 146 100 154" stroke="#1D9AE0" stroke-width="8" stroke-linecap="round"/>
  <path d="M42 176C60 168 78 168 94 174" stroke="#56BDF2" stroke-width="7" stroke-linecap="round"/>
</svg>
